<svg xmlns="http://www.w3.org/2000/svg" width="32" height="32" viewBox="0 0 32 32">
  <!-- Sun rays -->
  <g stroke="#FBBF24" stroke-width="2" stroke-linecap="round">
    <line x1="13" y1="2" x2="13" y2="5"/>
    <line x1="4" y1="11" x2="7" y2="11"/>
    <line x1="6.3" y1="4.3" x2="8.4" y2="6.4"/>
    <line x1="19.6" y1="4.3" x2="17.5" y2="6.4"/>
    <line x1="22" y1="11" x2="20" y2="11"/>
  </g>
  <!-- Sun disc -->
  <circle cx="13" cy="11" r="5" fill="#FBBF24"/>
  <!-- Cloud -->
  <path d="M25.5 22a4 4 0 00-7.45-2A3.5 3.5 0 0013.5 17 3.5 3.5 0 0010 20.5c0 .17.01.34.04.5H9.5a3 3 0 000 6h16a3 3 0 00.5-5.96z" fill="#60A5FA"/>
</svg>
